<?xml version="1.0" encoding="utf-8"?>

<svg version="1.1" id="_x3C_Ebene_x3E_" xmlns="http://www.w3.org/2000/svg" xmlns:xlink="http://www.w3.org/1999/xlink" x="0px" y="0px" viewBox="0 0 489.9 153.2" role="img" aria-label="msg" style="enable-background:new 0 0 489.9 153.2;" xml:space="preserve">

<path fill="#A01441" d="M0,92.5C0,78.4,11.4,67,25.5,67S51,78.4,51,92.5c0,14.1-11.4,25.5-25.5,25.5S0,106.6,0,92.5L0,92.5z"></path>
<path fill="#6F6F6F" d="M67.5,0v117.2h21.4V17.8c0,0,33.1,0,49,0v99.4h21.5V17.8c14.1,0,26.2,0,32.6,0c11,0,18.8,6.6,18.8,20.9v78.5&#xA;&#x9;h21.4c0-30.8,0-57.6,0-84.4c0-16-8.2-32.8-29.4-32.8L67.5,0L67.5,0z"></path>
<path fill="#6F6F6F" d="M275,0c-23.1,0-30.1,15.4-30.1,32.5c0,18.4,7.6,33.8,28.6,33.8c18.9,0,36.7,0,50.9,0c15.6,0,15.6,12,15.6,17.5&#xA;&#x9;c0,5.1,0,15.6-15.2,15.6c-12.2,0-77.9,0-77.9,0s0,12.9,0,17.9h86.9c21.7,0,27.9-12.7,27.9-33.3c0-24.5-8-35.4-26.5-35.4&#xA;&#x9;c-21.8,0-37.1,0-55,0c-13.9,0-13.9-9.4-13.9-15.6c0-4.9,1.4-15.1,16.2-15.1c15.6,0,75.1,0,75.1,0c0-7.2,0-11.1,0-17.8L275,0L275,0z"></path>
<path fill="#6F6F6F" d="M417.2,0c-19.1,0-26.2,3-31.4,7.2c-5.7,4.6-10.9,10.3-11,30v20.9v21.4c0,20.8,5.8,26.7,11.7,31.6&#xA;&#x9;c4,2.8,10.6,6.1,30.8,6.1h51.3c0,0,0,3.6,0,4.5c0,8.9-1.7,12.7-11.9,12.7h-66.9v18.8h73.8c19.9,0,26.3-8.9,26.3-25.6V0H417.2z&#xA;&#x9; M468.6,99.4h-44.9c-13.3,0.1-26.7,1-27.1-16.2c0-0.7-0.1-7,0-25.4c0.1-15.6-0.1-19.3,0-20.9c0.7-14.4,6-19.5,28-19c1.3,0,44,0,44,0&#xA;&#x9;V99.4L468.6,99.4z"></path>
</svg>